# xmcd
#
# Track frame offsets:
#	150
#	16986
#	31087
#	46368
#	56050
#	68395
#	79528
#	95405
#	113394
#	127315
#	141978
#	153386
#	173125
#
# Disc length: 2489 seconds
#
# Revision: 1
# Processed by: cddbd v1.5.2PL0 Copyright (c) Steve Scherf et al.
# Submitted via: EasyCDDAExtractor 7.0.5.4
#
DISCID=a009b70d
DTITLE=Don Williams - Country Masters-Lay Down Sally
DYEAR=1995
DGENRE=Country
TTITLE0=Fever
TTITLE1=Crying In The Rain
TTITLE2=Lay Down Sally
TTITLE3=My Rifle, My Pony And Me
TTITLE4=I'll Be There (If You Ever Want Me)
TTITLE5=Reason To Believe
TTITLE6=Games People Play
TTITLE7=If You Could Read My Mind
TTITLE8=Peace Train
TTITLE9=The Long Black Veil
TTITLE10=The Letter
TTITLE11=You've Got A Friend
TTITLE12=Pretend
EXTD=
EXTT0=
EXTT1=
EXTT2=
EXTT3=
EXTT4=
EXTT5=
EXTT6=
EXTT7=
EXTT8=
EXTT9=
EXTT10=
EXTT11=
EXTT12=
PLAYORDER=
